# xmcd
#
# Track frame offsets:
# 150
# 19452
# 39207
# 51111
# 60327
# 80547
# 100257
# 121188
# 130329
# 142719
# 155049
# 177795
# 201051
# 225441
# 237165
# 256575
# 277371
# 292779
# 303924
# 322467
# 340215
# 356697
# 368025
#
# Disc length: 4913 seconds
#
#
# Revision: 0
# Processed by: cddbd v1.5.2PL0 Copyright (c) Steve Scherf et al.
# Submitted via: FreeRIP 2.96 
#
DISCID=4a132f17
DTITLE=Ebert, Sabine - Das Geheimnis Der Hebamme
DYEAR=2007
DGENRE=Speech
TTITLE0=041 Das Geheimnis der Hebamme
TTITLE1=042 Das Geheimnis der Hebamme
TTITLE2=043 Das Geheimnis der Hebamme
TTITLE3=044 Das Geheimnis der Hebamme
TTITLE4=045 Das Geheimnis der Hebamme
TTITLE5=046 Das Geheimnis der Hebamme
TTITLE6=047 Das Geheimnis der Hebamme
TTITLE7=048 Das Geheimnis der Hebamme
TTITLE8=049 Das Geheimnis der Hebamme
TTITLE9=050 Das Geheimnis der Hebamme
TTITLE10=051 Das Geheimnis der Hebamme
TTITLE11=052 Das Geheimnis der Hebamme
TTITLE12=053 Das Geheimnis der Hebamme
TTITLE13=054 Das Geheimnis der Hebamme
TTITLE14=055 Das Geheimnis der Hebamme
TTITLE15=056 Das Geheimnis der Hebamme
TTITLE16=057 Das Geheimnis der Hebamme
TTITLE17=058 Das Geheimnis der Hebamme
TTITLE18=059 Das Geheimnis der Hebamme
TTITLE19=060 Das Geheimnis der Hebamme
TTITLE20=061 Das Geheimnis der Hebamme
TTITLE21=062 Das Geheimnis der Hebamme
TTITLE22=CD 4 einlegen
EXTD=gelesen von Julia Fischer
EXTT0=
EXTT1=
EXTT2=
EXTT3=
EXTT4=
EXTT5=
EXTT6=
EXTT7=
EXTT8=
EXTT9=
EXTT10=
EXTT11=
EXTT12=
EXTT13=
EXTT14=
EXTT15=
EXTT16=
EXTT17=
EXTT18=
EXTT19=
EXTT20=
EXTT21=
EXTT22=
PLAYORDER=
